<?xml version="1.0" standalone="no"?>
<!DOCTYPE svg PUBLIC "-//W3C//DTD SVG 20010904//EN"
 "http://www.w3.org/TR/2001/REC-SVG-20010904/DTD/svg10.dtd">
<svg version="1.0" xmlns="http://www.w3.org/2000/svg"
 width="512.000000pt" height="512.000000pt" viewBox="0 0 512.000000 512.000000"
 preserveAspectRatio="xMidYMid meet">

<g transform="translate(0.000000,512.000000) scale(0.100000,-0.100000)"
fill="#000000" stroke="none">
<path d="M2880 3730 c-210 -32 -260 -44 -425 -100 -310 -107 -478 -220 -711
-479 -121 -133 -193 -238 -273 -395 -59 -114 -150 -373 -171 -482 -18 -93 -18
-93 -98 -46 -38 23 -82 57 -98 77 -16 19 -50 60 -75 90 -60 71 -94 142 -169
350 -79 218 -174 414 -234 482 -28 31 -69 63 -102 79 -48 23 -63 26 -120 21
-82 -6 -143 -45 -247 -158 -144 -155 -179 -251 -143 -390 38 -145 85 -231 238
-436 111 -149 156 -190 343 -308 70 -44 153 -103 186 -131 65 -56 97 -72 289
-140 74 -26 207 -81 295 -122 270 -125 415 -188 530 -227 109 -38 112 -38 335
-48 205 -9 243 -8 410 11 285 33 337 35 522 21 255 -18 288 0 172 95 -71 58
-143 89 -240 101 -28 4 -66 16 -85 27 l-33 20 30 27 c20 18 60 35 119 51 116
30 200 74 305 158 193 155 234 177 358 191 112 12 139 3 196 -63 26 -30 65
-69 88 -87 51 -41 66 -41 250 0 76 17 164 31 195 31 73 0 105 16 117 58 14 51
-3 95 -44 109 -56 19 -150 15 -256 -12 -119 -30 -124 -30 -158 -4 -19 15 -26
30 -26 53 0 62 119 325 180 397 22 27 40 34 160 61 147 33 307 88 384 134 37
22 57 43 76 80 14 28 54 87 87 132 34 45 67 101 74 125 15 55 5 132 -22 171
-24 34 -202 193 -342 306 -183 146 -267 163 -571 114 -188 -30 -259 -29 -461
11 -404 79 -561 87 -835 45z"/>
</g>
</svg>
